# xmcd CD database file
#
# Track frame offsets:
#	150
#	17548
#	35148
#	52615
#	64738
#	79518
#	94715
#	107548
#	128438
#	144520
#	159185
#	171598
#
# Disc length: 2493 seconds
#
# Revision: 0
# Processed by: cddbd v1.5PL3 Copyright (c) Steve Scherf et al.
# Submitted via: CDex 1.51
#
DISCID=8909bb0c
DTITLE=Zeki Muren - Anilarim
DYEAR=1900
DGENRE=Turkce
TTITLE0=Sevemez Kimse Seni
TTITLE1=Bir Yanginin Kulunu
TTITLE2=Yarim Kalan Ask
TTITLE3=Benim De Canim Var
TTITLE4=Askin Kanunu
TTITLE5=Arim Balim Petegim
TTITLE6=Boyle Bir Kara Sevda
TTITLE7=Kiskanirim
TTITLE8=Gokyuzunde Yalniz Gezen Yildizlar
TTITLE9=Omrumce Adim Adim
TTITLE10=Aglama Degmez Hayat
TTITLE11=Gizli Ask Bu
EXTD=
EXTT0=
EXTT1=
EXTT2=
EXTT3=
EXTT4=
EXTT5=
EXTT6=
EXTT7=
EXTT8=
EXTT9=
EXTT10=
EXTT11=
PLAYORDER=
